<svg xmlns="http://www.w3.org/2000/svg" viewBox="0 0 512 512">
  <defs>
    <linearGradient id="bidonGradient" x1="0%" y1="100%" x2="0%" y2="0%">
      <stop offset="0%" style="stop-color:#f97316"/>
      <stop offset="100%" style="stop-color:#fb923c"/>
    </linearGradient>
    <linearGradient id="fuelGradient" x1="0%" y1="100%" x2="0%" y2="0%">
      <stop offset="0%" style="stop-color:#22c55e"/>
      <stop offset="100%" style="stop-color:#4ade80"/>
    </linearGradient>
  </defs>
  <!-- Bidon body -->
  <path d="M128 96 L128 448 Q128 480 160 480 L352 480 Q384 480 384 448 L384 96 Q384 64 352 64 L160 64 Q128 64 128 96 Z" fill="url(#bidonGradient)"/>
  <!-- Handle -->
  <path d="M176 32 L176 64 L336 64 L336 32 Q336 16 320 16 L192 16 Q176 16 176 32 Z" fill="url(#bidonGradient)"/>
  <!-- Spout -->
  <path d="M352 80 L400 48 Q416 40 416 56 L416 112 Q416 128 400 120 L352 88 Z" fill="url(#bidonGradient)"/>
  <!-- Fuel inside -->
  <path d="M144 200 L144 432 Q144 456 168 456 L344 456 Q368 456 368 432 L368 200 Z" fill="url(#fuelGradient)" opacity="0.9"/>
  <!-- Highlight -->
  <path d="M152 112 L152 420 Q152 428 160 428 L180 428 Q188 428 188 420 L188 112 Q188 104 180 104 L160 104 Q152 104 152 112 Z" fill="white" opacity="0.2"/>
</svg>
